<svg width="512" height="512" viewBox="0 0 512 512" fill="none" xmlns="http://www.w3.org/2000/svg">
  <rect width="512" height="512" rx="120" fill="#92B395"/>
  <path d="M128 160C128 142.327 142.327 128 160 128H352C369.673 128 384 142.327 384 160V352C384 369.673 369.673 384 352 384H160C142.327 384 128 369.673 128 352V160Z" fill="white" fill-opacity="0.2"/>
  <path d="M160 160H352V352H160V160Z" stroke="white" stroke-width="24" stroke-linecap="round" stroke-linejoin="round"/>
  <path d="M224 160V352" stroke="white" stroke-width="24" stroke-linecap="round" stroke-linejoin="round"/>
  <path d="M256 208H304" stroke="white" stroke-width="16" stroke-linecap="round"/>
  <path d="M256 256H304" stroke="white" stroke-width="16" stroke-linecap="round"/>
  <path d="M256 304H288" stroke="white" stroke-width="16" stroke-linecap="round"/>
  <circle cx="384" cy="128" r="48" fill="#726C81"/>
  <path d="M370 128L380 138L398 118" stroke="white" stroke-width="8" stroke-linecap="round" stroke-linejoin="round"/>
</svg>
